<svg width="22" height="22" viewBox="0 0 22 22" fill="none" xmlns="http://www.w3.org/2000/svg">
<path d="M0.89966 17.8699L7.97073 10.7988L0.899662 3.72776C0.524589 3.35269 0.313874 2.84398 0.313874 2.31355C0.313874 1.78311 0.524589 1.27441 0.899662 0.899335C1.27473 0.524262 1.78344 0.313547 2.31387 0.313547C2.84431 0.313547 3.35302 0.524262 3.72809 0.899335L10.7992 7.9704L17.8702 0.899333C18.2453 0.524261 18.754 0.313547 19.2844 0.313547C19.8149 0.313547 20.3236 0.524261 20.6986 0.899333C21.0737 1.27441 21.2844 1.78311 21.2844 2.31355C21.2844 2.84398 21.0737 3.35269 20.6986 3.72776L13.6276 10.7988L20.6986 17.8699C21.0737 18.245 21.2844 18.7537 21.2844 19.2841C21.2844 19.8145 21.0737 20.3233 20.6986 20.6983C20.3236 21.0734 19.8149 21.2841 19.2844 21.2841C18.754 21.2841 18.2453 21.0734 17.8702 20.6983L10.7992 13.6273L3.72809 20.6983C3.35301 21.0734 2.84431 21.2841 2.31387 21.2841C1.78344 21.2841 1.27473 21.0734 0.89966 20.6983C0.524587 20.3233 0.313873 19.8145 0.313873 19.2841C0.313873 18.7537 0.524587 18.245 0.89966 17.8699Z" fill="#F4F3F2"/>
</svg>
