<svg width="27" height="27" viewBox="0 0 27 27" fill="none" xmlns="http://www.w3.org/2000/svg">
<path d="M23.9565 6.81775C20.7844 8.6458 17.1844 9.60355 13.5217 9.59379C9.85902 9.60355 6.25896 8.6458 3.08691 6.81775" stroke="#F4F3F2"/>
<path d="M3.08691 20.2083C6.25452 18.3875 9.84562 17.4292 13.5008 17.4292C17.156 17.4292 20.7471 18.3875 23.9147 20.2083" stroke="#F4F3F2"/>
<path d="M11.9566 26C9.2473 22.3938 7.78271 18.0077 7.78271 13.5C7.78271 8.99229 9.2473 4.60617 11.9566 1" stroke="#F4F3F2"/>
<path d="M15.0869 1C17.7962 4.60617 19.2608 8.99229 19.2608 13.5C19.2608 18.0077 17.7962 22.3938 15.0869 26" stroke="#F4F3F2"/>
<path d="M13.5217 26C20.4373 26 26.0435 20.4036 26.0435 13.5C26.0435 6.59644 20.4373 1 13.5217 1C6.60617 1 1 6.59644 1 13.5C1 20.4036 6.60617 26 13.5217 26Z" stroke="#F4F3F2"/>
</svg>
