<svg width="209" height="39" viewBox="0 0 209 39" fill="none" xmlns="http://www.w3.org/2000/svg">
<path d="M52.4 26.2452H63.2V29.3452H48.6V26.2452C59.1 23.7452 59.2 23.3452 59.2 22.6452C59.2 22.1452 58.6 21.7452 55.7 21.7452C53.3 21.7452 52.1 22.1452 52 22.8452H48C48 20.4452 50.5 18.7452 55.5 18.7452C59.8 18.7452 63.2 19.2452 63.2 22.3452C63.2 24.8452 59.8 25.3452 55.6 25.8452L52.4 26.2452Z" fill="#F4F3F2"/>
<path d="M81.1 22.0453H74.7V29.2453H70.7V22.0453H64.3V18.9453H81V22.0453H81.1Z" fill="#F4F3F2"/>
<path d="M101.1 19.0453V29.3453H97.1001V25.6453H86.8V29.3453H82.8V19.0453H86.8V22.5453H97.1001V18.9453H101.1V19.0453Z" fill="#F4F3F2"/>
<path d="M119.6 26.2453V29.3453H103.4V19.0453H119.6V22.1453H107.4V23.4453H117.4V25.0453H107.4V26.3453H119.6V26.2453Z" fill="#F4F3F2"/>
<path d="M144.8 19.0453V29.3453H140.8V24.0453L135.7 29.3453H130.9L125.8 24.0453V29.3453H121.8V19.0453H125.8L133.3 26.8453L140.9 19.0453H144.8Z" fill="#F4F3F2"/>
<path d="M146.9 24.1453C146.9 20.5453 149.6 18.6453 156.6 18.6453C163.6 18.6453 166.3 20.5453 166.3 24.1453C166.3 27.7453 163.6 29.6453 156.6 29.6453C149.6 29.6453 146.9 27.7453 146.9 24.1453ZM162 24.1453C162 22.2453 159.9 21.7453 156.6 21.7453C153.3 21.7453 151.1 22.2453 151.1 24.1453C151.1 26.0453 153.3 26.5453 156.6 26.5453C160 26.5453 162 26.1453 162 24.1453Z" fill="#F4F3F2"/>
<path d="M168.3 24.1453C168.3 20.5453 171 18.6453 178 18.6453C185 18.6453 187.7 20.5453 187.7 24.1453C187.7 27.7453 185 29.6453 178 29.6453C171 29.6453 168.3 27.7453 168.3 24.1453ZM183.4 24.1453C183.4 22.2453 181.3 21.7453 178 21.7453C174.7 21.7453 172.5 22.2453 172.5 24.1453C172.5 26.0453 174.7 26.5453 178 26.5453C181.4 26.5453 183.4 26.1453 183.4 24.1453Z" fill="#F4F3F2"/>
<path d="M208.5 19.0453V29.3453H204.5L193.9 23.2453V29.3453H189.9V19.0453H193.9L204.5 25.3453V19.0453H208.5Z" fill="#F4F3F2"/>
<path d="M25.8 12.4452C19.5 5.64524 8.9 5.14523 2.1 11.3452C1.3 12.0452 0.6 12.8452 0 13.6452C0.3 12.7452 0.600002 11.9452 0.900002 11.1452C1.9 8.84523 3.4 6.74523 5.4 5.04523C13.2 -2.15477 25.4 -1.55477 32.6 6.24523C39.8 14.0452 39.2 26.2452 31.4 33.4452C29.4 35.2452 27.2 36.5452 24.9 37.3452C24.1 37.6452 23.2 37.8452 22.3 38.0452C23.2 37.5452 24 36.8452 24.8 36.1452C31.5 29.9452 32 19.3452 25.8 12.4452Z" fill="#F4F3F2"/>
<path d="M6.7998 23.1453L8.89981 25.4453L16.7998 18.2453L17.1998 16.3453L16.5998 15.6453L14.5998 15.9453L6.7998 23.1453Z" fill="#F4F3F2"/>
<path d="M19.1059 13.4246L2.19653 28.8661L2.8034 29.5306L19.7128 14.0892L19.1059 13.4246Z" fill="#F4F3F2"/>
<path d="M11.5001 22.4452L11.2001 25.8452L10.1001 27.3452L7.6001 24.0452L11.5001 22.4452Z" fill="#F4F3F2"/>
<path d="M10 20.7452L6.6 20.8452L5 21.7452L8 24.5452L10 20.7452Z" fill="#F4F3F2"/>
<path d="M16.3433 27.7114L7.26587 36.0115L7.80571 36.6019L16.8831 28.3018L16.3433 27.7114Z" fill="#F4F3F2"/>
<path d="M13.9383 28.5477L10.4678 31.7169L12.4232 33.8583L15.8937 30.6891L13.9383 28.5477Z" fill="#F4F3F2"/>
</svg>
